<?xml version="1.0" encoding="UTF-8"?>
<!DOCTYPE svg PUBLIC "-//W3C//DTD SVG 1.1//EN" "http://www.w3.org/Graphics/SVG/1.1/DTD/svg11.dtd">
<svg xmlns="http://www.w3.org/2000/svg" version="1.1" width="1080px" height="1080px" style="shape-rendering:geometricPrecision; text-rendering:geometricPrecision; image-rendering:optimizeQuality; fill-rule:evenodd; clip-rule:evenodd" xmlns:xlink="http://www.w3.org/1999/xlink">
<g><path style="opacity:0.985" fill="#000000" d="M 826.5,622.5 C 824.432,625.763 823.432,629.43 823.5,633.5C 822.375,634.348 822.375,635.348 823.5,636.5C 822.751,637.531 822.085,638.698 821.5,640C 821.94,642.162 822.273,644.329 822.5,646.5C 820.915,649.224 820.248,651.89 820.5,654.5C 819.375,655.348 819.375,656.348 820.5,657.5C 819.833,657.5 819.5,657.833 819.5,658.5C 818.478,662.224 817.145,665.891 815.5,669.5C 814.11,670.899 813.11,672.566 812.5,674.5C 811.508,674.328 810.842,674.662 810.5,675.5C 809.512,676.795 808.512,678.128 807.5,679.5C 801.722,683.205 795.388,685.539 788.5,686.5C 787.295,685.314 785.961,685.314 784.5,686.5C 784.158,685.662 783.492,685.328 782.5,685.5C 780.698,684.542 778.698,683.875 776.5,683.5C 776.306,681.088 774.973,680.088 772.5,680.5C 772.737,679.209 772.404,678.209 771.5,677.5C 770.961,675.495 770.295,673.495 769.5,671.5C 768.528,673.636 766.861,674.803 764.5,675C 764.833,675.333 765.167,675.667 765.5,676C 762.183,676.608 758.849,677.108 755.5,677.5C 752.149,676.903 749.149,676.237 746.5,675.5C 744.012,672.888 742.345,673.554 741.5,677.5C 737.099,681.601 731.766,683.601 725.5,683.5C 724.791,682.596 723.791,682.263 722.5,682.5C 719.512,678.175 717.178,678.508 715.5,683.5C 711.522,685.489 707.522,687.489 703.5,689.5C 702.246,691.259 702.579,692.759 704.5,694C 704.965,699.557 702.632,703.724 697.5,706.5C 692.084,707.451 686.75,708.784 681.5,710.5C 678.664,710.41 675.997,709.743 673.5,708.5C 673.607,706.621 673.107,706.288 672,707.5C 671.661,704.964 671.161,702.464 670.5,700C 671.3,698.212 671.634,696.545 671.5,695C 668.183,694.502 664.85,694.335 661.5,694.5C 661.158,693.662 660.492,693.328 659.5,693.5C 659.167,692.167 658.833,692.167 658.5,693.5C 656.608,692.298 654.774,690.965 653,689.5C 651.579,691.405 650.412,693.405 649.5,695.5C 648.167,695.833 648.167,696.167 649.5,696.5C 643.977,700.199 637.977,701.865 631.5,701.5C 629.882,699.684 627.882,698.351 625.5,697.5C 625.167,694.833 624.833,694.833 624.5,697.5C 623.167,697.833 623.167,698.167 624.5,698.5C 621.511,700.003 618.844,702.003 616.5,704.5C 613.763,705.031 611.096,705.864 608.5,707C 604.909,707.789 601.409,707.622 598,706.5C 592.701,711.526 586.534,713.526 579.5,712.5C 579.167,711.167 578.833,711.167 578.5,712.5C 577.833,712.167 577.167,711.833 576.5,711.5C 575.053,710.115 574.053,710.448 573.5,712.5C 571.597,715.458 568.93,717.458 565.5,718.5C 564.368,717.646 563.035,717.646 561.5,718.5C 560.713,716.896 559.38,716.229 557.5,716.5C 557.5,717.5 557.5,718.5 557.5,719.5C 555.167,720.167 552.833,720.833 550.5,721.5C 548.95,721.508 547.283,721.175 545.5,720.5C 543.888,718.702 542.388,716.702 541,714.5C 540.721,711.394 540.888,708.561 541.5,706C 539.402,705.322 537.402,705.489 535.5,706.5C 534.791,705.596 533.791,705.263 532.5,705.5C 529.639,704.66 526.973,703.327 524.5,701.5C 521.833,698.833 519.167,696.167 516.5,693.5C 514.552,689.047 513.219,684.38 512.5,679.5C 513.72,677.95 513.72,676.284 512.5,674.5C 513.132,671.638 514.132,668.804 515.5,666C 515.167,665.667 514.833,665.333 514.5,665C 516.782,662.603 518.116,659.769 518.5,656.5C 519.906,656.027 520.573,655.027 520.5,653.5C 521.833,652.833 522.833,651.833 523.5,650.5C 524.627,649.878 525.627,649.045 526.5,648C 505.167,647.667 483.833,647.333 462.5,647C 440.78,645.114 430.113,633.281 430.5,611.5C 424.242,611.81 418.076,611.476 412,610.5C 411.5,622.829 411.333,635.162 411.5,647.5C 364.137,647.965 316.804,647.465 269.5,646C 252.116,641.109 243.783,629.609 244.5,611.5C 229.167,611.5 213.833,611.5 198.5,611.5C 198.034,529.816 198.534,448.15 200,366.5C 200.767,363.8 201.933,361.3 203.5,359C 211.159,358.5 218.826,358.334 226.5,358.5C 226.215,356.712 226.548,355.045 227.5,353.5C 228.167,358.167 228.833,362.833 229.5,367.5C 230.167,368.167 230.833,368.833 231.5,369.5C 232.5,396.158 232.833,422.825 232.5,449.5C 234.833,449.5 237.167,449.5 239.5,449.5C 239.18,446.102 239.513,442.768 240.5,439.5C 242.809,443.131 243.976,447.131 244,451.5C 245,438.167 246,438.167 247,451.5C 247.499,445.509 247.666,439.509 247.5,433.5C 249.527,433.662 251.527,433.495 253.5,433C 251.866,432.506 250.199,432.34 248.5,432.5C 248.5,429.167 248.5,425.833 248.5,422.5C 252.5,422.5 256.5,422.5 260.5,422.5C 260.333,394.498 260.5,366.498 261,338.5C 264.394,337.544 267.894,337.211 271.5,337.5C 271.5,336.5 271.5,335.5 271.5,334.5C 272.833,334.5 274.167,334.5 275.5,334.5C 275.103,328.28 275.77,322.28 277.5,316.5C 278.5,316.5 279.5,316.5 280.5,316.5C 281.307,322.464 281.64,328.464 281.5,334.5C 283.833,334.5 286.167,334.5 288.5,334.5C 288.5,335.5 288.5,336.5 288.5,337.5C 290.5,337.5 292.5,337.5 294.5,337.5C 294.5,327.167 294.5,316.833 294.5,306.5C 296.167,306.5 297.833,306.5 299.5,306.5C 299.5,304.5 299.5,302.5 299.5,300.5C 302.167,300.5 304.833,300.5 307.5,300.5C 307.5,289.833 307.5,279.167 307.5,268.5C 308.5,268.5 309.5,268.5 310.5,268.5C 310.5,265.5 310.5,262.5 310.5,259.5C 321.5,259.5 332.5,259.5 343.5,259.5C 345.738,280.753 347.071,302.087 347.5,323.5C 348.452,321.955 348.785,320.288 348.5,318.5C 352.833,318.5 357.167,318.5 361.5,318.5C 362.362,314.936 362.695,311.436 362.5,308C 366.486,307.501 370.486,307.334 374.5,307.5C 374.5,311.167 374.5,314.833 374.5,318.5C 379.167,318.5 383.833,318.5 388.5,318.5C 388.5,320.167 388.5,321.833 388.5,323.5C 390.5,323.5 392.5,323.5 394.5,323.5C 394.5,345.167 394.5,366.833 394.5,388.5C 398.63,388.466 402.63,387.799 406.5,386.5C 406.5,336.833 406.5,287.167 406.5,237.5C 410.015,237.879 413.348,238.879 416.5,240.5C 417.192,239.975 417.692,239.308 418,238.5C 418.908,240.439 420.408,241.439 422.5,241.5C 422.168,230.813 422.501,220.146 423.5,209.5C 424.492,213.783 424.826,218.116 424.5,222.5C 425.5,222.5 426.5,222.5 427.5,222.5C 427.5,228.833 427.5,235.167 427.5,241.5C 432.179,241.666 436.845,241.499 441.5,241C 445.327,239.21 449.327,238.044 453.5,237.5C 453.144,250.539 453.478,260.872 454.5,268.5C 458.5,268.5 462.5,268.5 466.5,268.5C 466.5,271.833 466.5,275.167 466.5,278.5C 468.5,278.5 470.5,278.5 472.5,278.5C 472.5,282.5 472.5,286.5 472.5,290.5C 473.833,290.5 475.167,290.5 476.5,290.5C 478.397,301.412 479.73,312.412 480.5,323.5C 481.086,323.709 481.586,324.043 482,324.5C 482.333,341.833 482.667,359.167 483,376.5C 483.333,378.5 483.667,380.5 484,382.5C 484.17,376.472 484.67,370.472 485.5,364.5C 486.474,366.743 486.808,369.076 486.5,371.5C 487.833,371.5 489.167,371.5 490.5,371.5C 490.17,364.8 490.503,358.134 491.5,351.5C 492.466,353.396 492.799,355.396 492.5,357.5C 495.5,357.5 498.5,357.5 501.5,357.5C 501.237,334.463 501.904,311.463 503.5,288.5C 511.167,288.5 518.833,288.5 526.5,288.5C 526.757,291.932 527.424,295.266 528.5,298.5C 532.219,297.772 535.219,298.772 537.5,301.5C 538.386,300.675 538.719,299.675 538.5,298.5C 543.167,298.5 547.833,298.5 552.5,298.5C 552.5,299.5 552.5,300.5 552.5,301.5C 553.5,301.5 554.5,301.5 555.5,301.5C 555.526,293.141 556.026,284.807 557,276.5C 558.445,273.945 559.611,271.278 560.5,268.5C 568.5,268.5 576.5,268.5 584.5,268.5C 584.215,266.712 584.548,265.045 585.5,263.5C 586.328,267.796 586.828,272.129 587,276.5C 587.915,277.328 588.581,278.328 589,279.5C 589.167,292.513 589.667,305.513 590.5,318.5C 591.474,316.257 591.808,313.924 591.5,311.5C 593.5,311.5 595.5,311.5 597.5,311.5C 597.5,306.833 597.5,302.167 597.5,297.5C 599.5,297.5 601.5,297.5 603.5,297.5C 603.5,294.833 603.5,292.167 603.5,289.5C 604.833,289.5 606.167,289.5 607.5,289.5C 607.5,288.5 607.5,287.5 607.5,286.5C 609.5,287.167 611.5,287.833 613.5,288.5C 613.5,278.833 613.5,269.167 613.5,259.5C 615.167,259.5 616.833,259.5 618.5,259.5C 618.462,256.379 617.795,253.379 616.5,250.5C 617.664,247.933 618.33,245.266 618.5,242.5C 619.5,242.5 620.5,242.5 621.5,242.5C 621.5,238.5 621.5,234.5 621.5,230.5C 622.5,230.5 623.5,230.5 624.5,230.5C 623.862,216.753 624.529,203.253 626.5,190C 624.893,188.951 624.227,187.451 624.5,185.5C 626.5,185.5 628.5,185.5 630.5,185.5C 631.487,165.427 631.821,145.427 631.5,125.5C 632.5,125.5 633.5,125.5 634.5,125.5C 634.581,145.505 634.915,165.505 635.5,185.5C 637.5,185.5 639.5,185.5 641.5,185.5C 641.773,187.451 641.107,188.951 639.5,190C 641.143,203.27 642.143,216.77 642.5,230.5C 643.086,230.709 643.586,231.043 644,231.5C 644.193,238.147 645.693,244.48 648.5,250.5C 647.205,253.379 646.538,256.379 646.5,259.5C 648.167,259.5 649.833,259.5 651.5,259.5C 651.5,269.167 651.5,278.833 651.5,288.5C 652.833,288.5 654.167,288.5 655.5,288.5C 655.5,295.5 655.5,302.5 655.5,309.5C 657.5,309.5 659.5,309.5 661.5,309.5C 661.699,307.04 662.365,304.707 663.5,302.5C 664.429,303.689 664.762,305.022 664.5,306.5C 665.5,306.5 666.5,306.5 667.5,306.5C 667.5,307.5 667.5,308.5 667.5,309.5C 669.833,309.5 672.167,309.5 674.5,309.5C 674.5,318.167 674.5,326.833 674.5,335.5C 681.167,335.5 687.833,335.5 694.5,335.5C 694.333,320.496 694.5,305.496 695,290.5C 697.381,289.565 699.881,289.232 702.5,289.5C 702.116,287.335 702.783,285.668 704.5,284.5C 705.496,278.202 705.83,271.868 705.5,265.5C 706.5,265.5 707.5,265.5 708.5,265.5C 709.26,271.804 709.593,278.137 709.5,284.5C 713.5,283.833 715.167,285.5 714.5,289.5C 717.119,289.232 719.619,289.565 722,290.5C 722.118,309.192 722.618,324.525 723.5,336.5C 724.833,336.5 726.167,336.5 727.5,336.5C 727.5,332.833 727.5,329.167 727.5,325.5C 729.5,325.5 731.5,325.5 733.5,325.5C 733.5,321.833 733.5,318.167 733.5,314.5C 737.5,314.5 741.5,314.5 745.5,314.5C 745.5,318.833 745.5,323.167 745.5,327.5C 747.5,327.5 749.5,327.5 751.5,327.5C 752.427,357.82 752.76,388.153 752.5,418.5C 755.833,418.5 759.167,418.5 762.5,418.5C 762.5,423.167 762.5,427.833 762.5,432.5C 765.833,432.5 769.167,432.5 772.5,432.5C 772.5,434.167 772.5,435.833 772.5,437.5C 775.167,437.5 777.833,437.5 780.5,437.5C 780.169,445.196 780.503,452.862 781.5,460.5C 782.492,456.217 782.826,451.884 782.5,447.5C 783.833,447.5 785.167,447.5 786.5,447.5C 786.5,439.167 786.5,430.833 786.5,422.5C 787.833,422.5 789.167,422.5 790.5,422.5C 790.833,412.5 791.167,402.5 791.5,392.5C 793.167,392.5 794.833,392.5 796.5,392.5C 796.5,389.5 796.5,386.5 796.5,383.5C 804.167,383.5 811.833,383.5 819.5,383.5C 819.5,386.5 819.5,389.5 819.5,392.5C 821.467,392.261 823.301,392.594 825,393.5C 825.877,403.15 826.377,412.817 826.5,422.5C 828.167,422.5 829.833,422.5 831.5,422.5C 831.5,420.833 831.5,419.167 831.5,417.5C 833.167,417.5 834.833,417.5 836.5,417.5C 836.195,412.238 836.529,407.072 837.5,402C 850.5,401.333 863.5,401.333 876.5,402C 877.471,407.072 877.805,412.238 877.5,417.5C 878.5,417.5 879.5,417.5 880.5,417.5C 881.683,448.16 881.85,504.827 881,587.5C 876.666,601.493 867.166,609.326 852.5,611C 844.173,611.5 835.84,611.666 827.5,611.5C 827.519,613.06 827.852,614.56 828.5,616C 827.391,618.047 826.724,620.213 826.5,622.5 Z M 782.5,611.5 C 781.329,612.345 779.995,613.011 778.5,613.5C 778.167,612.167 777.833,612.167 777.5,613.5C 776.209,613.737 775.209,613.404 774.5,612.5C 773.577,613.303 772.577,613.47 771.5,613C 772.384,609.656 772.717,606.49 772.5,603.5C 776.642,606.718 781.308,608.884 786.5,610C 785.099,610.41 783.766,610.91 782.5,611.5 Z M 725.5,612.5 C 724.89,614.434 723.89,616.101 722.5,617.5C 721.922,616.453 721.256,616.62 720.5,618C 720.728,618.399 721.062,618.565 721.5,618.5C 722.815,619.895 722.481,620.895 720.5,621.5C 720.313,623.564 719.813,625.564 719,627.5C 713.22,624.933 707.387,624.933 701.5,627.5C 700.584,627.457 699.917,627.124 699.5,626.5C 693.557,628.816 687.557,630.816 681.5,632.5C 681.672,631.508 681.338,630.842 680.5,630.5C 680.774,626.961 680.274,623.294 679,619.5C 676.963,617.294 674.797,615.294 672.5,613.5C 671.833,613.167 671.167,612.833 670.5,612.5C 670.167,611.167 669.833,611.167 669.5,612.5C 666.531,612.447 663.531,612.114 660.5,611.5C 665.94,610.127 671.273,608.127 676.5,605.5C 681.106,608.402 686.106,610.235 691.5,611C 702.909,611.188 714.242,611.688 725.5,612.5 Z M 660.5,611.5 C 658.039,612.531 655.373,613.198 652.5,613.5C 650.098,615.531 647.431,617.197 644.5,618.5C 642.229,620.266 640.063,622.266 638,624.5C 635.477,628.233 632.977,631.899 630.5,635.5C 629.922,634.453 629.256,634.62 628.5,636C 628.728,636.399 629.062,636.565 629.5,636.5C 629.405,638.786 628.738,640.786 627.5,642.5C 627.167,643.167 626.833,643.833 626.5,644.5C 624.895,645.006 624.561,645.673 625.5,646.5C 625.631,647.239 625.464,647.906 625,648.5C 621.557,645.987 618.057,644.653 614.5,644.5C 609.917,645.082 605.583,646.415 601.5,648.5C 598.903,650.593 596.403,652.926 594,655.5C 593.517,654.552 593.351,653.552 593.5,652.5C 595.105,651.994 595.439,651.327 594.5,650.5C 594.461,649.244 594.961,648.244 596,647.5C 596.167,635.153 596.667,622.82 597.5,610.5C 618.454,611.488 639.454,611.822 660.5,611.5 Z M 799.5,612.5 C 800.251,611.427 801.251,611.26 802.5,612C 801.648,613.728 800.648,613.895 799.5,612.5 Z M 751.5,619.5 C 752.239,619.369 752.906,619.536 753.5,620C 751.652,621.899 749.652,623.233 747.5,624C 748.085,622.698 748.751,621.531 749.5,620.5C 750.327,621.439 750.994,621.105 751.5,619.5 Z M 680.5,630.5 C 680.328,631.492 680.662,632.158 681.5,632.5C 677.959,633.856 677.626,633.189 680.5,630.5 Z M 658.5,636.5 C 659.289,636.783 659.956,637.283 660.5,638C 654.982,644.132 654.315,643.632 658.5,636.5 Z"/></g>
<g><path style="opacity:1" fill="#fefffe" d="M 216.5,477.5 C 239.502,477.333 262.502,477.5 285.5,478C 293.208,478.414 298.042,482.247 300,489.5C 300.667,502.5 300.667,515.5 300,528.5C 299.118,531.552 297.284,533.886 294.5,535.5C 297.253,537.089 299.086,539.422 300,542.5C 300.5,561.83 300.667,581.164 300.5,600.5C 331.407,600.171 362.24,600.504 393,601.5C 393.817,610.745 393.65,619.911 392.5,629C 354.167,629.667 315.833,629.667 277.5,629C 269.997,629.013 265.164,625.513 263,618.5C 262.5,594.836 262.333,571.169 262.5,547.5C 259.5,547.5 256.5,547.5 253.5,547.5C 253.5,562.833 253.5,578.167 253.5,593.5C 240.833,593.5 228.167,593.5 215.5,593.5C 215.173,554.761 215.506,516.094 216.5,477.5 Z"/></g>
<g><path style="opacity:1" fill="#fefffe" d="M 323.5,477.5 C 341.836,477.333 360.17,477.5 378.5,478C 384.442,478.077 388.942,480.577 392,485.5C 393.621,506.782 393.955,528.116 393,549.5C 377.578,550.491 362.078,550.824 346.5,550.5C 346.5,555.167 346.5,559.833 346.5,564.5C 349.5,564.5 352.5,564.5 355.5,564.5C 355.5,562.167 355.5,559.833 355.5,557.5C 368.08,557.178 380.58,557.511 393,558.5C 393.667,566.5 393.667,574.5 393,582.5C 391.387,588.447 387.553,591.947 381.5,593C 361.167,593.667 340.833,593.667 320.5,593C 315.812,592.08 312.312,589.58 310,585.5C 309.333,552.5 309.333,519.5 310,486.5C 313.16,481.346 317.66,478.346 323.5,477.5 Z"/></g>
<g><path style="opacity:1" fill="#fefffe" d="M 416.5,477.5 C 434.836,477.333 453.17,477.5 471.5,478C 479.912,478.747 484.745,483.247 486,491.5C 486.5,527.832 486.667,564.165 486.5,600.5C 517.168,600.333 547.835,600.5 578.5,601C 579.65,610.089 579.817,619.255 579,628.5C 540.238,629.663 501.405,629.83 462.5,629C 457.43,628.549 453.264,626.382 450,622.5C 448.58,612.914 448.08,603.247 448.5,593.5C 436.829,593.667 425.162,593.5 413.5,593C 407.447,591.947 403.613,588.447 402,582.5C 401.333,551.5 401.333,520.5 402,489.5C 402.229,486.542 403.396,484.042 405.5,482C 408.979,479.791 412.646,478.291 416.5,477.5 Z"/></g>
<g><path style="opacity:1" fill="#fefffe" d="M 495.5,477.5 C 507.747,477.178 519.914,477.512 532,478.5C 532.5,507.165 532.667,535.831 532.5,564.5C 535.5,564.5 538.5,564.5 541.5,564.5C 541.333,535.831 541.5,507.165 542,478.5C 554.333,477.167 566.667,477.167 579,478.5C 579.967,514.206 579.634,549.872 578,585.5C 575.897,589.934 572.397,592.434 567.5,593C 547.167,593.667 526.833,593.667 506.5,593C 501.611,592.444 498.111,589.944 496,585.5C 494.859,567.05 494.359,548.55 494.5,530C 494.507,512.428 494.84,494.928 495.5,477.5 Z"/></g>
<g><path style="opacity:1" fill="#fefffe" d="M 602.5,477.5 C 620.836,477.333 639.17,477.5 657.5,478C 663.551,478.439 668.051,481.272 671,486.5C 672.608,507.457 672.942,528.457 672,549.5C 656.578,550.491 641.078,550.824 625.5,550.5C 625.5,555.167 625.5,559.833 625.5,564.5C 628.5,564.5 631.5,564.5 634.5,564.5C 634.5,562.167 634.5,559.833 634.5,557.5C 647.08,557.178 659.58,557.511 672,558.5C 672.667,565.833 672.667,573.167 672,580.5C 671.302,587.532 667.469,591.699 660.5,593C 640.167,593.667 619.833,593.667 599.5,593C 594.611,592.444 591.111,589.944 589,585.5C 587.356,553.561 587.022,521.561 588,489.5C 588.229,486.542 589.396,484.042 591.5,482C 594.979,479.791 598.646,478.291 602.5,477.5 Z"/></g>
<g><path style="opacity:1" fill="#fefffe" d="M 695.5,477.5 C 713.836,477.333 732.17,477.5 750.5,478C 758.912,478.747 763.745,483.247 765,491.5C 765.5,498.826 765.666,506.159 765.5,513.5C 752.833,513.5 740.167,513.5 727.5,513.5C 727.756,511.208 727.423,509.041 726.5,507C 723.854,506.503 721.187,506.336 718.5,506.5C 718.5,511.5 718.5,516.5 718.5,521.5C 729.838,521.333 741.172,521.5 752.5,522C 760.041,522.875 764.208,527.041 765,534.5C 765.667,549.833 765.667,565.167 765,580.5C 764.302,587.532 760.469,591.699 753.5,593C 743.333,593.167 733.167,593.333 723,593.5C 711.446,593.623 699.946,593.123 688.5,592C 684.51,590.01 682.01,586.843 681,582.5C 680.5,574.173 680.334,565.84 680.5,557.5C 693.167,557.5 705.833,557.5 718.5,557.5C 718.5,559.833 718.5,562.167 718.5,564.5C 721.5,564.5 724.5,564.5 727.5,564.5C 727.5,559.833 727.5,555.167 727.5,550.5C 716.495,550.667 705.495,550.5 694.5,550C 688.974,549.658 684.807,547.158 682,542.5C 680.375,524.899 680.041,507.233 681,489.5C 681.229,486.542 682.396,484.042 684.5,482C 687.979,479.791 691.646,478.291 695.5,477.5 Z"/></g>
<g><path style="opacity:1" fill="#fefffe" d="M 779.5,477.5 C 791.838,477.333 804.171,477.5 816.5,478C 817.435,480.381 817.768,482.881 817.5,485.5C 832.833,485.5 848.167,485.5 863.5,485.5C 863.5,495.167 863.5,504.833 863.5,514.5C 848.167,514.5 832.833,514.5 817.5,514.5C 817.5,531.167 817.5,547.833 817.5,564.5C 820.5,564.5 823.5,564.5 826.5,564.5C 826.5,550.167 826.5,535.833 826.5,521.5C 838.833,521.5 851.167,521.5 863.5,521.5C 863.667,542.836 863.5,564.169 863,585.5C 860.688,589.58 857.188,592.08 852.5,593C 832.167,593.667 811.833,593.667 791.5,593C 785.873,592.043 782.04,588.876 780,583.5C 779.5,560.502 779.333,537.502 779.5,514.5C 776.552,514.777 773.719,514.444 771,513.5C 770.5,504.173 770.334,494.839 770.5,485.5C 773.5,485.5 776.5,485.5 779.5,485.5C 779.5,482.833 779.5,480.167 779.5,477.5 Z"/></g>
<g><path style="opacity:1" fill="#000000" d="M 253.5,506.5 C 256.5,506.5 259.5,506.5 262.5,506.5C 262.5,512.5 262.5,518.5 262.5,524.5C 259.5,524.5 256.5,524.5 253.5,524.5C 253.5,518.5 253.5,512.5 253.5,506.5 Z"/></g>
<g><path style="opacity:1" fill="#000000" d="M 347.5,506.5 C 350.167,506.5 352.833,506.5 355.5,506.5C 355.5,512.167 355.5,517.833 355.5,523.5C 352.5,523.5 349.5,523.5 346.5,523.5C 346.214,517.741 346.548,512.075 347.5,506.5 Z"/></g>
<g><path style="opacity:1" fill="#000000" d="M 439.5,507.5 C 442.5,507.5 445.5,507.5 448.5,507.5C 448.5,526.5 448.5,545.5 448.5,564.5C 445.5,564.5 442.5,564.5 439.5,564.5C 439.5,545.5 439.5,526.5 439.5,507.5 Z"/></g>
<g><path style="opacity:1" fill="#000000" d="M 625.5,507.5 C 628.5,507.5 631.5,507.5 634.5,507.5C 634.5,512.833 634.5,518.167 634.5,523.5C 631.5,523.5 628.5,523.5 625.5,523.5C 625.5,518.167 625.5,512.833 625.5,507.5 Z"/></g>
<g><path style="opacity:1" fill="#3197f3" d="M 753.5,602.5 C 756.216,602.678 758.883,603.178 761.5,604C 764.758,608.142 763.925,610.976 759,612.5C 755.805,611.779 754.305,609.779 754.5,606.5C 749.703,607.153 745.87,609.486 743,613.5C 735.153,628.384 730.319,644.217 728.5,661C 728.1,664.142 728.6,667.308 730,670.5C 732.304,668.22 733.804,665.554 734.5,662.5C 735.5,662.5 736.5,662.5 737.5,662.5C 737.414,669.407 734.081,673.24 727.5,674C 724.084,672.472 722.084,669.805 721.5,666C 721.18,647.122 726.014,629.622 736,613.5C 740.532,607.587 746.366,603.92 753.5,602.5 Z"/></g>
<g><path style="opacity:0.004" fill="#000000" d="M 827.5,620.5 C 828.833,621.167 828.833,621.167 827.5,620.5 Z"/></g>
<g><path style="opacity:0.004" fill="#000000" d="M 826.5,622.5 C 827.833,623.167 827.833,623.167 826.5,622.5 Z"/></g>
<g><path style="opacity:1" fill="#3197f4" d="M 664.5,620.5 C 668.723,621.223 671.056,623.723 671.5,628C 669.282,630.509 666.616,631.009 663.5,629.5C 662.691,627.929 662.357,626.262 662.5,624.5C 657.699,625.154 653.866,627.488 651,631.5C 644.906,641.967 640.906,652.967 639,664.5C 638.249,671.192 637.415,677.692 636.5,684C 637,685.5 637.5,687 638,688.5C 640.084,685.997 641.917,683.331 643.5,680.5C 645.941,682.528 646.108,684.862 644,687.5C 640.959,692.706 636.959,693.706 632,690.5C 627.336,667.81 632.17,647.143 646.5,628.5C 649.029,626.471 651.696,624.638 654.5,623C 657.952,622.115 661.286,621.282 664.5,620.5 Z"/></g>
<g><path style="opacity:1" fill="#3197f4" d="M 809.5,625.5 C 806.323,635.186 803.823,645.186 802,655.5C 793.52,664.501 788.02,662.835 785.5,650.5C 787.396,642.977 789.396,635.477 791.5,628C 790.852,626.56 790.519,625.06 790.5,623.5C 787.754,623.928 786.087,625.594 785.5,628.5C 782.874,629.293 781.04,630.96 780,633.5C 778.433,641.834 776.933,650.167 775.5,658.5C 776.833,658.5 778.167,658.5 779.5,658.5C 779.447,655.939 780.447,653.939 782.5,652.5C 784.402,659.12 781.902,663.12 775,664.5C 771.176,664.002 769.009,661.836 768.5,658C 769.225,653.242 770.225,648.576 771.5,644C 771.167,643.833 770.833,643.667 770.5,643.5C 769.077,646.691 768.077,650.024 767.5,653.5C 767.352,657.753 765.852,661.753 763,665.5C 756.219,670.255 750.885,668.922 747,661.5C 743.199,643.676 749.699,630.842 766.5,623C 772.376,620.806 777.376,621.973 781.5,626.5C 784.712,618.409 789.879,616.743 797,621.5C 798.29,623.657 799.124,625.99 799.5,628.5C 798.507,637.301 796.507,645.801 793.5,654C 793.667,655.5 794.5,656.333 796,656.5C 797.477,655.556 798.477,654.223 799,652.5C 801.451,640.576 804.784,628.909 809,617.5C 811.408,614.38 814.574,613.047 818.5,613.5C 817.937,617.971 816.77,622.304 815,626.5C 813.819,636.752 812.486,646.752 811,656.5C 807.888,669.032 799.888,676.032 787,677.5C 783.317,676.586 780.484,674.586 778.5,671.5C 778.746,666.561 781.079,664.894 785.5,666.5C 786.769,668.695 786.769,670.861 785.5,673C 787.833,673.667 790.167,673.667 792.5,673C 797.934,668.639 801.767,663.139 804,656.5C 806.051,646.192 807.885,635.859 809.5,625.5 Z"/></g>
<g><path style="opacity:1" fill="#112338" d="M 809.5,625.5 C 809.541,622.195 810.875,620.029 813.5,619C 812.432,621.438 811.098,623.605 809.5,625.5 Z"/></g>
<g><path style="opacity:1" fill="#04070c" d="M 768.5,626.5 C 771.247,626.187 773.914,626.52 776.5,627.5C 774.73,628.82 774.397,630.32 775.5,632C 772.851,632.452 770.351,633.286 768,634.5C 766.844,642.282 765.177,649.949 763,657.5C 761.949,659.627 760.449,661.293 758.5,662.5C 756.702,661.869 755.369,660.702 754.5,659C 754.623,653.368 755.123,647.868 756,642.5C 758.051,635.342 762.218,630.009 768.5,626.5 Z"/></g>
<g><path style="opacity:0.004" fill="#000000" d="M 823.5,633.5 C 824.833,634.167 824.833,634.167 823.5,633.5 Z"/></g>
<g><path style="opacity:1" fill="#3198f5" d="M 697.5,647.5 C 699.994,643.207 702.994,639.207 706.5,635.5C 712.002,633.177 716.002,634.677 718.5,640C 722.257,653.392 719.591,665.225 710.5,675.5C 706.67,678.601 702.336,680.101 697.5,680C 695.251,678.255 693.584,676.088 692.5,673.5C 690.827,679.26 689.827,684.927 689.5,690.5C 691.5,692.5 693.5,694.5 695.5,696.5C 690.379,697.791 685.379,699.458 680.5,701.5C 680.55,700.152 680.217,698.652 679.5,697C 683.426,678.923 686.426,661.423 688.5,644.5C 684.247,644.434 683.58,642.934 686.5,640C 690.812,639.611 694.646,638.111 698,635.5C 698.944,636.263 699.444,637.263 699.5,638.5C 698.068,641.327 697.401,644.327 697.5,647.5 Z"/></g>
<g><path style="opacity:0.004" fill="#000000" d="M 823.5,636.5 C 824.833,637.167 824.833,637.167 823.5,636.5 Z"/></g>
<g><path style="opacity:1" fill="#070e17" d="M 770.5,636.5 C 771.874,638.517 771.707,640.517 770,642.5C 770.135,640.575 770.302,638.575 770.5,636.5 Z"/></g>
<g><path style="opacity:1" fill="#020407" d="M 706.5,639.5 C 707.5,639.5 708.5,639.5 709.5,639.5C 709.652,643.262 710.319,646.928 711.5,650.5C 710.833,653.167 710.167,655.833 709.5,658.5C 709.724,665.674 706.724,671.34 700.5,675.5C 698.869,673.941 698.036,671.941 698,669.5C 697.432,658.427 700.265,648.427 706.5,639.5 Z"/></g>
<g><path style="opacity:1" fill="#3197f4" d="M 577.5,641.5 C 580.167,641.5 582.833,641.5 585.5,641.5C 587.008,644.14 586.674,646.473 584.5,648.5C 582.117,649.462 581.117,648.462 581.5,645.5C 579.654,645.222 578.32,645.889 577.5,647.5C 587.571,655.426 587.904,663.593 578.5,672C 585.08,673.121 587.246,676.954 585,683.5C 583.65,687.467 582.817,691.301 582.5,695C 583.18,698.007 584.846,698.84 587.5,697.5C 588.154,695.885 588.654,694.218 589,692.5C 590.011,691.663 591.178,691.33 592.5,691.5C 592.741,702.551 587.741,705.885 577.5,701.5C 576.346,698.548 575.346,695.548 574.5,692.5C 575.125,689.373 576.125,686.373 577.5,683.5C 577.324,681.328 577.157,678.995 577,676.5C 575.556,674.845 573.722,674.178 571.5,674.5C 570.79,685.23 568.79,696.23 565.5,707.5C 564.635,708.583 563.635,708.749 562.5,708C 563.524,706.633 563.024,705.8 561,705.5C 556.757,706.956 552.924,708.956 549.5,711.5C 557.135,695.821 562.301,679.155 565,661.5C 566.113,657.492 567.613,653.659 569.5,650C 566.876,648.022 563.876,647.188 560.5,647.5C 543.157,649.336 532.824,658.836 529.5,676C 530.729,679.743 531.729,683.576 532.5,687.5C 536.704,692.89 541.371,693.39 546.5,689C 550.933,682.897 551.6,676.397 548.5,669.5C 542.888,666.491 539.222,668.158 537.5,674.5C 538.04,675.748 538.707,676.915 539.5,678C 545.778,679.676 546.112,682.176 540.5,685.5C 538.893,685.363 537.559,684.696 536.5,683.5C 531.976,673.617 534.309,665.784 543.5,660C 550.273,659.089 554.773,661.923 557,668.5C 558.958,683.582 552.624,693.249 538,697.5C 527.271,694.748 521.771,687.748 521.5,676.5C 525.218,658.522 536.052,647.188 554,642.5C 558.096,642.728 562.263,642.895 566.5,643C 569,643.375 571.333,644.208 573.5,645.5C 574.909,644.151 576.243,642.818 577.5,641.5 Z"/></g>
<g><path style="opacity:1" fill="#3198f5" d="M 670.5,642.5 C 673.187,642.336 675.854,642.503 678.5,643C 681.692,648.147 681.358,653.314 677.5,658.5C 673.388,661.731 669.055,664.731 664.5,667.5C 661.176,671.5 661.176,675.667 664.5,680C 666,680.5 667.5,681 669,681.5C 673.498,679.668 676.665,676.502 678.5,672C 679.448,671.517 680.448,671.351 681.5,671.5C 681.244,673.937 680.577,676.271 679.5,678.5C 673.696,685.534 666.696,687.034 658.5,683C 653.405,676.598 651.905,669.432 654,661.5C 657.187,653.106 662.687,646.772 670.5,642.5 Z"/></g>
<g><path style="opacity:1" fill="#060a10" d="M 672.5,646.5 C 673.586,646.62 674.253,647.287 674.5,648.5C 674.033,650.568 673.366,652.568 672.5,654.5C 659.441,666.945 657.774,665.112 667.5,649C 669.315,648.243 670.981,647.41 672.5,646.5 Z"/></g>
<g><path style="opacity:0.004" fill="#000000" d="M 523.5,650.5 C 522.833,649.167 522.833,649.167 523.5,650.5 Z"/></g>
<g><path style="opacity:1" fill="#152c45" d="M 697.5,647.5 C 697.599,650.673 696.932,653.673 695.5,656.5C 695.167,656.167 694.833,655.833 694.5,655.5C 695.009,652.538 696.009,649.871 697.5,647.5 Z"/></g>
<g><path style="opacity:0.004" fill="#000000" d="M 520.5,653.5 C 519.833,652.167 519.833,652.167 520.5,653.5 Z"/></g>
<g><path style="opacity:1" fill="#04080e" d="M 574.5,653.5 C 576.631,656.228 577.964,659.395 578.5,663C 577.373,664.753 576.373,666.587 575.5,668.5C 574.675,669.386 573.675,669.719 572.5,669.5C 573.216,663.932 573.882,658.598 574.5,653.5 Z"/></g>
<g><path style="opacity:1" fill="#3298f6" d="M 609.5,653.5 C 616.364,652.742 621.198,655.409 624,661.5C 626.573,671.98 624.74,681.813 618.5,691C 613.066,696.694 606.399,699.027 598.5,698C 596.43,697.052 594.93,695.552 594,693.5C 591.378,685.339 591.711,677.339 595,669.5C 597.416,666.337 599.582,663.004 601.5,659.5C 604.303,657.459 606.969,655.459 609.5,653.5 Z"/></g>
<g><path style="opacity:0.004" fill="#000000" d="M 820.5,654.5 C 821.833,655.167 821.833,655.167 820.5,654.5 Z"/></g>
<g><path style="opacity:0.004" fill="#000000" d="M 518.5,656.5 C 517.833,655.167 517.833,655.167 518.5,656.5 Z"/></g>
<g><path style="opacity:0.004" fill="#000000" d="M 820.5,657.5 C 821.833,658.167 821.833,658.167 820.5,657.5 Z"/></g>
<g><path style="opacity:0.004" fill="#000000" d="M 819.5,658.5 C 819.833,658.5 820.167,658.5 820.5,658.5C 820.315,659.17 819.981,659.17 819.5,658.5 Z"/></g>
<g><path style="opacity:1" fill="#03050a" d="M 610.5,658.5 C 613.86,657.79 615.693,659.124 616,662.5C 617.513,672.072 616.013,681.072 611.5,689.5C 603.469,697.114 599.469,695.448 599.5,684.5C 600.863,674.712 604.53,666.045 610.5,658.5 Z"/></g>
<g><path style="opacity:0.004" fill="#000000" d="M 815.5,669.5 C 816.833,670.167 816.833,670.167 815.5,669.5 Z"/></g>
<g><path style="opacity:0.004" fill="#000000" d="M 512.5,674.5 C 511.833,673.167 511.833,673.167 512.5,674.5 Z"/></g>
<g><path style="opacity:0.004" fill="#000000" d="M 812.5,674.5 C 813.833,675.167 813.833,675.167 812.5,674.5 Z"/></g>
<g><path style="opacity:0.004" fill="#000000" d="M 746.5,675.5 C 745.833,676.167 745.833,676.167 746.5,675.5 Z"/></g>
<g><path style="opacity:0.004" fill="#000000" d="M 810.5,675.5 C 811.833,676.167 811.833,676.167 810.5,675.5 Z"/></g>
<g><path style="opacity:0.004" fill="#000000" d="M 741.5,677.5 C 742.833,678.167 742.833,678.167 741.5,677.5 Z"/></g>
<g><path style="opacity:0.004" fill="#000000" d="M 771.5,677.5 C 770.833,678.167 770.833,678.167 771.5,677.5 Z"/></g>
<g><path style="opacity:0.004" fill="#000000" d="M 512.5,679.5 C 511.833,678.167 511.833,678.167 512.5,679.5 Z"/></g>
<g><path style="opacity:0.004" fill="#000000" d="M 807.5,679.5 C 808.833,680.167 808.833,680.167 807.5,679.5 Z"/></g>
<g><path style="opacity:0.004" fill="#000000" d="M 722.5,682.5 C 721.833,683.167 721.833,683.167 722.5,682.5 Z"/></g>
<g><path style="opacity:0.004" fill="#000000" d="M 715.5,683.5 C 716.833,684.167 716.833,684.167 715.5,683.5 Z"/></g>
<g><path style="opacity:0.004" fill="#000000" d="M 725.5,683.5 C 724.833,684.167 724.833,684.167 725.5,683.5 Z"/></g>
<g><path style="opacity:0.004" fill="#000000" d="M 776.5,683.5 C 775.833,684.167 775.833,684.167 776.5,683.5 Z"/></g>
<g><path style="opacity:0.004" fill="#000000" d="M 782.5,685.5 C 781.833,686.167 781.833,686.167 782.5,685.5 Z"/></g>
<g><path style="opacity:0.004" fill="#000000" d="M 784.5,686.5 C 783.833,687.167 783.833,687.167 784.5,686.5 Z"/></g>
<g><path style="opacity:0.004" fill="#000000" d="M 788.5,686.5 C 787.833,687.167 787.833,687.167 788.5,686.5 Z"/></g>
<g><path style="opacity:0.004" fill="#000000" d="M 516.5,693.5 C 515.833,694.167 515.833,694.167 516.5,693.5 Z"/></g>
<g><path style="opacity:0.004" fill="#000000" d="M 658.5,693.5 C 658.833,693.5 659.167,693.5 659.5,693.5C 659.315,694.17 658.981,694.17 658.5,693.5 Z"/></g>
<g><path style="opacity:0.004" fill="#000000" d="M 650.5,694.5 C 651.833,695.167 651.833,695.167 650.5,694.5 Z"/></g>
<g><path style="opacity:0.004" fill="#000000" d="M 661.5,694.5 C 660.833,695.167 660.833,695.167 661.5,694.5 Z"/></g>
<g><path style="opacity:0.004" fill="#000000" d="M 649.5,695.5 C 649.833,695.5 650.167,695.5 650.5,695.5C 650.315,696.17 649.981,696.17 649.5,695.5 Z"/></g>
<g><path style="opacity:0.008" fill="#000000" d="M 624.5,697.5 C 624.833,697.5 625.167,697.5 625.5,697.5C 625.315,698.17 624.981,698.17 624.5,697.5 Z"/></g>
<g><path style="opacity:0.004" fill="#000000" d="M 524.5,701.5 C 523.833,702.167 523.833,702.167 524.5,701.5 Z"/></g>
<g><path style="opacity:0.004" fill="#000000" d="M 631.5,701.5 C 630.833,702.167 630.833,702.167 631.5,701.5 Z"/></g>
<g><path style="opacity:0.004" fill="#000000" d="M 616.5,704.5 C 617.833,705.167 617.833,705.167 616.5,704.5 Z"/></g>
<g><path style="opacity:0.004" fill="#000000" d="M 532.5,705.5 C 531.833,706.167 531.833,706.167 532.5,705.5 Z"/></g>
<g><path style="opacity:0.004" fill="#000000" d="M 535.5,706.5 C 534.833,707.167 534.833,707.167 535.5,706.5 Z"/></g>
<g><path style="opacity:0.004" fill="#000000" d="M 697.5,706.5 C 698.833,707.167 698.833,707.167 697.5,706.5 Z"/></g>
<g><path style="opacity:0.004" fill="#000000" d="M 673.5,708.5 C 672.833,709.167 672.833,709.167 673.5,708.5 Z"/></g>
<g><path style="opacity:0.004" fill="#000000" d="M 576.5,711.5 C 575.833,712.167 575.833,712.167 576.5,711.5 Z"/></g>
<g><path style="opacity:0.004" fill="#000000" d="M 573.5,712.5 C 574.833,713.167 574.833,713.167 573.5,712.5 Z"/></g>
<g><path style="opacity:0.004" fill="#000000" d="M 578.5,712.5 C 578.833,712.5 579.167,712.5 579.5,712.5C 579.315,713.17 578.981,713.17 578.5,712.5 Z"/></g>
<g><path style="opacity:0.004" fill="#000000" d="M 540.5,716.5 C 541.833,717.167 541.833,717.167 540.5,716.5 Z"/></g>
<g><path style="opacity:0.004" fill="#000000" d="M 561.5,718.5 C 560.833,719.167 560.833,719.167 561.5,718.5 Z"/></g>
<g><path style="opacity:0.004" fill="#000000" d="M 565.5,718.5 C 564.833,719.167 564.833,719.167 565.5,718.5 Z"/></g>
<g><path style="opacity:0.004" fill="#000000" d="M 545.5,720.5 C 544.833,721.167 544.833,721.167 545.5,720.5 Z"/></g>
<g><path style="opacity:0.004" fill="#000000" d="M 550.5,721.5 C 549.833,722.167 549.833,722.167 550.5,721.5 Z"/></g>
</svg>
